/* XPM */
static char *quake_world[] = {
/* columns rows colors chars-per-pixel */
"32 32 256 2",
"   c #0BCE0BDF1EF5",
".  c #25832FEE157A",
"X  c #29E732A71748",
"o  c #2BFA345B1B5F",
"O  c #0CA10CD6236D",
"+  c #0EFA0F60283F",
"@  c #0F820FAA21E3",
"#  c #0EED0FA228D0",
"$  c #128413312344",
"%  c #184B17C3259D",
"&  c #118A11DD2C75",
"*  c #1C6D1CC22A9E",
"=  c #1502155B3287",
"-  c #190C19AF3329",
";  c #1B081C253B5D",
":  c #1E6E1FEF2AE4",
">  c #277E2C5727A0",
",  c #27CC2D0C2761",
"<  c #211121FD2C05",
"1  c #2A8A2DE12C71",
"2  c #2D2B328E2AEA",
"3  c #332037952135",
"4  c #34AB3D7B21C3",
"5  c #3AB93EF92B02",
"6  c #283F271D3376",
"7  c #2622281A30A9",
"8  c #29562BAC3240",
"9  c #25EF27A03A18",
"0  c #31632F9A32E7",
"q  c #2D2E3006328C",
"w  c #33E33969331B",
"e  c #39853ED7358A",
"r  c #381E3BEC3A2A",
"t  c #31F733FE321F",
"y  c #3DD941922DCA",
"u  c #3F6C4B9D297B",
"i  c #3B0646E825D4",
"p  c #3D7443EF3B8F",
"a  c #426D4CE72BBB",
"s  c #43E451F82C12",
"d  c #4267454932C2",
"f  c #44E04C3C3461",
"g  c #4C094DC03504",
"h  c #40E848F83EC5",
"j  c #4BD34B163BEF",
"k  c #44A152083060",
"l  c #4BB15BB934A7",
"z  c #475C556A3F9B",
"x  c #4A99538F3C5A",
"c  c #54F4540F3BCE",
"v  c #50415F6F3F5A",
"b  c #543C65BA37B4",
"n  c #52E1642E396B",
"m  c #594669F83D96",
"M  c #1D171DA941A2",
"N  c #203225494C8B",
"B  c #23AB2C0D4E43",
"V  c #286C2B0845EF",
"C  c #2F1433D7444B",
"Z  c #358037A647F9",
"A  c #25F12B215233",
"S  c #29842F1E5611",
"D  c #2C46326C53B9",
"F  c #252631EE5A9D",
"G  c #2CC1349E5A64",
"H  c #2C9037E25DC1",
"J  c #311331505149",
"K  c #30F038B85722",
"L  c #38603E9855ED",
"P  c #34693B815BAB",
"I  c #3B3945C54E92",
"U  c #358A440E5CEA",
"Y  c #385B402768D4",
"T  c #3F5F4865726C",
"R  c #44E14B2E43EA",
"E  c #47F24EDD45FF",
"W  c #44774B534C28",
"Q  c #49A14EBD4937",
"!  c #52784F433FE9",
"~  c #4660514F4393",
"^  c #48EA53CC45DD",
"/  c #4C12544D4A76",
"(  c #4E6E5B77498B",
")  c #52C25537429C",
"_  c #5993575843E0",
"`  c #5BE55B3043F8",
"'  c #4FFD58084DE9",
"]  c #5B5E598C4CDB",
"[  c #56F45B5E461B",
"{  c #408440DC580A",
"}  c #47EF4CCD5B31",
"|  c #48DF4BE95663",
" . c #4BFB5D295927",
".. c #54555CBC5260",
"X. c #5BDA5ADA5242",
"o. c #5120557D5C76",
"O. c #63185F794FD9",
"+. c #5F1067954539",
"@. c #5129619E485E",
"#. c #5A766A7B4BB4",
"$. c #555A62C151E9",
"%. c #5985651656F6",
"&. c #5B5E654F592F",
"*. c #5D9F699D5AE9",
"=. c #65486E684D8E",
"-. c #679966054DDF",
";. c #660175354BA4",
":. c #614071C7445B",
">. c #60C867645312",
",. c #6D5A6B2853B9",
"<. c #627D6CB75D03",
"1. c #6E1D6E005F85",
"2. c #71576E145B53",
"3. c #784A6EE85DDA",
"4. c #6F327D9E560E",
"5. c #62B5709B5F3D",
"6. c #696E70515A4D",
"7. c #6592781F5CFE",
"8. c #7DE279DF5F42",
"9. c #73A3758356E8",
"0. c #421B483263C6",
"q. c #48775ACB6BC9",
"w. c #53D6506061F4",
"e. c #50E550A56978",
"r. c #59725A856C7B",
"t. c #59975903774C",
"y. c #61C65F566C93",
"u. c #61A25DC4713D",
"i. c #612E5F347BBF",
"p. c #4D8C6247614A",
"a. c #5B556B6561FD",
"s. c #59BF6B4667ED",
"d. c #5A1262FB63D5",
"f. c #61ED61416733",
"g. c #66406FB06DE3",
"h. c #67166DD36818",
"j. c #781E6FA36101",
"k. c #65F5728762AF",
"l. c #6AE2770664A0",
"z. c #6DDE7B236B3B",
"x. c #79B9768B6996",
"c. c #71E97EF86EA5",
"v. c #794476CC6ACB",
"b. c #643A638B783D",
"n. c #6D9F75F977BC",
"m. c #67397A627FF9",
"M. c #77E975727D29",
"N. c #76B97BE77231",
"B. c #85FC7FAD6769",
"V. c #812C7AD96AD3",
"C. c #6D85800B5B4F",
"Z. c #78AB86F55B23",
"A. c #7AD889415EDA",
"S. c #773B85245B93",
"D. c #7C6487026214",
"F. c #72DD806B6F4E",
"G. c #7FE781856FCA",
"H. c #7AE1899B6271",
"J. c #75FA83517266",
"K. c #78A7862174FA",
"L. c #7B1688F97757",
"P. c #7D968AE47A0E",
"I. c #742D82EF7C85",
"U. c #81A18EA666DF",
"Y. c #879F81396D94",
"T. c #8EA486886F84",
"R. c #881B8BFB6C74",
"E. c #897680B4725A",
"W. c #8D5C837F794C",
"Q. c #84B58ECC7BA2",
"!. c #8B2B8E78785C",
"~. c #894D8CCC714A",
"^. c #95ED8AE8706A",
"/. c #9B279D827CE6",
"(. c #9D1894897EFB",
"). c #5F8760048474",
"_. c #58C0615E8A62",
"`. c #63F167678B96",
"'. c #6DE674B0826A",
"]. c #7044753E8B35",
"[. c #6E4E74869014",
"{. c #76F57C4594A1",
"}. c #78517B0B9C3D",
"|. c #702F804986D8",
" X c #7E5C858D82EB",
".X c #7DFC855FAAF1",
"XX c #84D68A9E86D1",
"oX c #946E892687BC",
"OX c #85FB93648263",
"+X c #8B3F988387A4",
"@X c #8D8B9A468A0C",
"#X c #8EFB92C7851C",
"$X c #99089600863A",
"%X c #80EF85A69E94",
"&X c #922F8E219198",
"*X c #9B7B964C9563",
"=X c #9E4398D297D8",
"-X c #988A95D29819",
";X c #9B789F37A011",
":X c #9725A38093E6",
">X c #A5EAA9E78538",
",X c #AC20A45E8E23",
"<X c #AA96AFD78B5D",
"1X c #B6A7AED09AD8",
"2X c #BD49B9C49C99",
"3X c #B883B37398FE",
"4X c #89038EEBA2E3",
"5X c #9A299C8EABAC",
"6X c #8C1393AAB778",
"7X c #A2999C1EA143",
"8X c #A5A2A331A191",
"9X c #AB8DB6B5A8A6",
"0X c #AB01ACCFBA10",
"qX c #BD0FB796B6B0",
"wX c #BE9FB99FB6D7",
"eX c #BF4EBE51BF06",
"rX c #B193B444BEC5",
"tX c #C13CB572A163",
"yX c #C6E0BE1AAE6E",
"uX c #C24BB5C7AB07",
"iX c #C060BF50B838",
"pX c #CDA3C28EB272",
"aX c #C987C305BF10",
"sX c #D13CCA36B6CC",
"dX c #D122C926BAFB",
"fX c #DFA4D563BE7D",
"gX c #A2CCA7AAC787",
"hX c #BB57BC93C506",
"jX c #B053B465C92C",
"kX c #B3E6B6D9C5B2",
"lX c #CEF8C7DAC04A",
"zX c #C673C77ACBBE",
"xX c #CEA8CA71C305",
"cX c #D100CF83CAEA",
"vX c #D6A6D337C71E",
"bX c #DACDD349C3FF",
"nX c #DE5BD63ACE34",
"mX c #D331D139D0AE",
"MX c #DA15D890D6D9",
"NX c #E2D1D98BC68D",
"BX c #E657DC48CD94",
"VX c #EE2BE479D374",
"CX c #EF69E8A3D556",
"ZX c #EEC0E8ABD859",
"AX c #F0D1E48AD102",
"SX c #F2EFE94FD743",
"DX c #F5A2EC5CD9E1",
"FX c #F98EF173DEC2",
"GX c #DDA5DEF0E552",
"HX c #FAEBF413E2E1",
"JX c #FF35F96BE729",
"KX c #FF40FC22E985",
"LX c #F758F423E309",
"PX c #F1F7F292F4EF",
"IX c #FF39FF40FF65",
"UX c None",
/* pixels */
"UXUXUXUXUXUXUXUXUXUXUXIXIXIXIXIXIXUXUXUXUXUXUXUXUXUXUXUXUXUXUXUX",
"UXUXUXUXUXUXUXUXUXIXPXGX0X5XhXhXrXzXcXUXUXUXUXUXUXUXUXUXUXUXUXUX",
"UXUXUXUXUXUXUXPXkX{.{.].D B P 0.B | 2.v.G.UXUXUXUXUXUXUXUXUXUXUX",
"UXUXUXUXUXUXGX%XP N A H F F P P C p y d [ 6.UXUXUXUXUXUXUXUXUXUX",
"UXUXUXUXUXjX[.G A D W ^ I U I p d 5 3 X o f >.UXUXUXUXUXUXUXUXUX",
"UXUXUXUXgX`.P S L / ( x ^ z k u i 4 o X . o x UXUXUXUXUXUXUXUXUX",
"UXUXUXUX.XY K P .. .p.@.v n l l s u u a 4 5 ) x.UXUXUXUXUXUXUXUX",
"UXUXUXUX_.P  .q.a.s.7.;.;.;.;.=.+.=.,.-.` -.j.V.UXUXUXUXUXUXUXUX",
"UXUXUX6XT G a.C.4.S.Z.A.H.D.R.!.$X,X,XT.2.V.E.O.) UXUXUXUXUXUXUX",
"UXUXUX}.P o.<.<.l.D.U.I.m.z.~.|.iXsX3XB.Y.$X3.d d UXUXUXUXUXUXUX",
"UXUXUX`.J v.y.e.r.g.N.XX&X#X/. X;XpXtX(.2.,.` y e 1 UXUXUXUXUXUX",
"UXUXn.).u.uXbXwXi.t.t.b.&XNXNXyXyXpXyX1X~.` j 2 e > UXUXUXUXUXUX",
"UXUXg.}.lXAXSXDXnXmXMXeXqXVXDXxX-X*XM.f.1.` 1 $ q > UXUXUXUXUXUX",
"UXUXa.4XbXCXSXDXHXHXJXKXaX7XBXZXvX8XV = 7 j % $ 8 , UXUXUXUXUXUX",
"UXUX%.'.!.2XfXCXLXSXDXFXBX&X=XdX*X{ - = & : $ $ 8 , UXUXUXUXUXUX",
"UXUXl.d.o.=.R.>X<X>X3X2X/.D.W.oXw.- = & + O   % 1 2 UXUXUXUXUXUX",
"UXUX@X*.} V C / m b b m :.9.^.W.Z = & & O O @ < 2 w UXUXUXUXUXUX",
"UXUXUXP.&.Z M V f s a a #.8.X.9 = = & + O O % 1 w p UXUXUXUXUXUX",
"UXUXUX9XJ.*.Z ; 9 g a f ) c 6 = = & # O O % 1 e h UXUXUXUXUXUXUX",
"UXUXUXUX:XK.k.W Z _ _ c g d 7 6 * + O $ < w p R ..UXUXUXUXUXUXUX",
"UXUXUXUXUXOXL.F.<...] ] ! t - 0 * * 8 r R E E R UXUXUXUXUXUXUXUX",
"UXUXUXUXUXUXF.F.K.c.k.&...Q R R R / / / / / ../ E UXUXUXUXUXUXUX",
"UXUXUXUXUXUXUXUX&.<.l.z.z.k.<.&.&.....%...' *.%.....UXUXUXUXUXUX",
"UXUXUXUXUXUXUXUXUXUX~ ~ ^ ^ ^ ~ R h / z.k.*.*.*.k.k.k.UXUXUXUXUX",
"UXUXUXUXUXUXUXUXUXUXUXUXUXUXUXUXUXUXUXUXJ.J.c.k.*.z.J.UXUXUXUXUX",
"UXUXUXUXUXUXUXUXUXUXUXUXUXUXUXUXUXUXUXUXF.P.OXQ.UX%.F.L.UXUXUXUX",
"UXUXUXUXUXUXUXUXUXUXUXUXUXUXUXUXUXUXUXUXUXz.P.+XOXUX%.c.L.UXUXUX",
"UXUXUXUXUXUXUXUXUXUXUXUXUXUXUXUXUXUXUXUXUXUXl.P.@XUXUX$.z.UXUXUX",
"UXUXUXUXUXUXUXUXUXUXUXUXUXUXUXUXUXUXUXUXUXUXUXk.P.@XUXUX$.<.UXUX",
"UXUXUXUXUXUXUXUXUXUXUXUXUXUXUXUXUXUXUXUXUXUXUXUX5.K.UXUXUXUXUXUX",
"UXUXUXUXUXUXUXUXUXUXUXUXUXUXUXUXUXUXUXUXUXUXUXUXUX5.z.UXUXUXUXUX",
"UXUXUXUXUXUXUXUXUXUXUXUXUXUXUXUXUXUXUXUXUXUXUXUXUXUXUXUXUXUXUXUX"
};
